<svg xmlns="http://www.w3.org/2000/svg" width="20" height="19" fill="none">
  <path fill="#8D8D8D" d="M9.776 18.837a36.257 36.257 0 0 1-6.328-4.957 12.668 12.668 0 0 1-3.03-4.805C-.72 5.535.603 1.49 4.3.288A6.282 6.282 0 0 1 10.007 1.3 6.291 6.291 0 0 1 15.713.288c3.697 1.201 5.03 5.247 3.893 8.787a12.67 12.67 0 0 1-3.013 4.805 36.584 36.584 0 0 1-6.328 4.957l-.249.163-.24-.163Z" opacity=".4"/>
  <path fill="#8D8D8D" d="m10.01 19-.234-.163a36.317 36.317 0 0 1-6.337-4.957A12.667 12.667 0 0 1 .391 9.075C-.74 5.535.586 1.49 4.283.288a6.296 6.296 0 0 1 5.728 1.023V19ZM16.23 7a.719.719 0 0 1-.517-.278.818.818 0 0 1-.167-.592c.022-.702-.378-1.341-.994-1.59-.391-.107-.628-.53-.53-.948.093-.41.477-.666.864-.573a.384.384 0 0 1 .138.052c1.236.476 2.036 1.755 1.973 3.155a.808.808 0 0 1-.23.56.708.708 0 0 1-.537.213Z"/>
</svg>