<svg xmlns="http://www.w3.org/2000/svg" width="18" height="20" fill="none">
  <path fill="#8D8D8D" d="M16.77 9.645c-.731-.853-1.063-1.592-1.063-2.848V6.37c0-1.636-.377-2.69-1.196-3.745C13.25.987 11.124 0 9.044 0h-.088C6.919 0 4.86.942 3.577 2.513 2.713 3.588 2.293 4.688 2.293 6.37v.427c0 1.256-.31 1.995-1.063 2.848-.553.629-.73 1.437-.73 2.31 0 .876.287 1.705.864 2.379a4.532 4.532 0 0 0 2.9 1.413c1.571.179 3.142.246 4.737.246 1.593 0 3.164-.113 4.736-.246a4.532 4.532 0 0 0 2.9-1.413 3.614 3.614 0 0 0 .863-2.378c0-.874-.177-1.682-.73-2.31Z"/>
  <path fill="#8D8D8D" d="M11.009 17.228c-.5-.106-3.546-.106-4.046 0-.428.1-.89.329-.89.832.025.48.306.905.696 1.174h-.001a3.636 3.636 0 0 0 1.714.733c.33.045.666.043 1.008 0 .618-.09 1.21-.34 1.713-.732v-.001c.39-.27.67-.693.695-1.174 0-.503-.462-.733-.89-.832Z" opacity=".4"/>
</svg>